<?xml version="1.0" encoding="UTF-8" standalone="no"?>
<svg
   id="Camada_1"
   data-name="Camada 1"
   viewBox="0 0 94 49.04"
   version="1.1"
   sodipodi:docname="elemento-oab.svg"
   inkscape:version="1.4 (86a8ad7, 2024-10-11)"
   width="94"
   height="49.040001"
   xmlns:inkscape="http://www.inkscape.org/namespaces/inkscape"
   xmlns:sodipodi="http://sodipodi.sourceforge.net/DTD/sodipodi-0.dtd"
   xmlns="http://www.w3.org/2000/svg"
   xmlns:svg="http://www.w3.org/2000/svg">
  <sodipodi:namedview
     id="namedview42"
     pagecolor="#ffffff"
     bordercolor="#000000"
     borderopacity="0.25"
     inkscape:showpageshadow="2"
     inkscape:pageopacity="0.0"
     inkscape:pagecheckerboard="0"
     inkscape:deskcolor="#d1d1d1"
     inkscape:zoom="4.7264452"
     inkscape:cx="124.51218"
     inkscape:cy="24.119607"
     inkscape:window-width="3200"
     inkscape:window-height="1284"
     inkscape:window-x="-9"
     inkscape:window-y="-9"
     inkscape:window-maximized="1"
     inkscape:current-layer="Camada_1" />
  <defs
     id="defs1">
    <style
       id="style1">
      .cls-1 {
        stroke: #fff;
        stroke-miterlimit: 10;
        stroke-width: .5px;
      }

      .cls-1, .cls-2, .cls-3 {
        fill: #fff;
      }

      .cls-3 {
        fill-rule: evenodd;
      }
    </style>
  </defs>
  <g
     id="g24"
     style="fill:#ffffff">
    <g
       id="g19"
       style="fill:#ffffff">
      <path
         class="cls-2"
         d="m 14.33,48.87 -0.94,-2.56 c 0,0 -0.03,-0.04 -0.05,-0.04 h -0.58 c 0,0 -0.05,0.02 -0.05,0.05 v 2.53 c 0,0 -0.01,0.06 -0.03,0.08 -0.02,0.02 -0.05,0.03 -0.08,0.03 h -1.08 c 0,0 -0.06,-0.01 -0.08,-0.03 -0.02,-0.02 -0.03,-0.05 -0.03,-0.08 v -6.26 c 0,0 0.01,-0.06 0.03,-0.08 0.02,-0.02 0.05,-0.03 0.08,-0.03 h 2.26 c 0.36,0 0.69,0.08 0.97,0.25 0.28,0.16 0.5,0.39 0.66,0.69 0.15,0.3 0.23,0.64 0.23,1.02 0,0.38 -0.09,0.74 -0.26,1.03 -0.17,0.29 -0.42,0.51 -0.73,0.65 -0.03,0.01 -0.04,0.03 -0.03,0.06 l 1.06,2.66 c 0,0 0,0.03 0,0.05 0,0.06 -0.03,0.08 -0.1,0.08 h -1.13 c -0.07,0 -0.11,-0.03 -0.13,-0.09 z m -1.61,-5.22 v 1.58 c 0,0 0.02,0.05 0.05,0.05 h 0.81 c 0.23,0 0.41,-0.08 0.56,-0.23 0.14,-0.15 0.21,-0.35 0.21,-0.61 0,-0.26 -0.07,-0.46 -0.21,-0.62 C 14,43.67 13.81,43.59 13.58,43.59 h -0.81 c 0,0 -0.05,0.02 -0.05,0.05 z"
         id="path6"
         style="fill:#ffffff" />
      <path
         class="cls-2"
         d="m 16.38,48.93 c 0,0 -0.03,-0.05 -0.03,-0.08 v -6.26 c 0,0 0.01,-0.06 0.03,-0.08 0.02,-0.02 0.05,-0.03 0.08,-0.03 h 1.08 c 0,0 0.06,0.01 0.08,0.03 0.02,0.02 0.03,0.05 0.03,0.08 v 6.26 c 0,0 -0.01,0.06 -0.03,0.08 -0.02,0.02 -0.05,0.03 -0.08,0.03 h -1.08 c 0,0 -0.06,-0.01 -0.08,-0.03 z"
         id="path7"
         style="fill:#ffffff" />
      <path
         class="cls-2"
         d="m 19.45,48.78 c -0.32,-0.17 -0.58,-0.42 -0.75,-0.73 -0.18,-0.31 -0.27,-0.68 -0.27,-1.1 v -2.46 c 0,-0.41 0.09,-0.78 0.27,-1.09 0.18,-0.31 0.43,-0.56 0.75,-0.73 0.32,-0.17 0.7,-0.26 1.13,-0.26 0.43,0 0.8,0.09 1.13,0.26 0.33,0.17 0.58,0.42 0.76,0.73 0.18,0.32 0.27,0.68 0.27,1.09 v 2.46 c 0,0.42 -0.09,0.79 -0.27,1.1 -0.18,0.31 -0.43,0.56 -0.76,0.73 -0.33,0.17 -0.7,0.26 -1.13,0.26 -0.43,0 -0.8,-0.09 -1.13,-0.26 z m 1.74,-1.11 c 0.15,-0.17 0.23,-0.39 0.23,-0.66 v -2.56 c 0,-0.28 -0.08,-0.5 -0.23,-0.67 -0.15,-0.17 -0.36,-0.25 -0.62,-0.25 -0.26,0 -0.46,0.09 -0.61,0.25 -0.15,0.17 -0.23,0.39 -0.23,0.67 v 2.56 c 0,0.27 0.08,0.49 0.23,0.66 0.15,0.17 0.36,0.25 0.61,0.25 0.25,0 0.47,-0.08 0.62,-0.25 z"
         id="path8"
         style="fill:#ffffff" />
      <path
         class="cls-2"
         d="m 26.17,48.78 c -0.32,-0.17 -0.57,-0.4 -0.75,-0.71 -0.18,-0.31 -0.26,-0.66 -0.26,-1.06 v -2.6 c 0,-0.4 0.09,-0.75 0.26,-1.06 0.17,-0.31 0.42,-0.54 0.75,-0.7 0.32,-0.17 0.69,-0.25 1.11,-0.25 0.42,0 0.78,0.08 1.11,0.25 0.33,0.17 0.57,0.39 0.75,0.69 0.18,0.29 0.26,0.62 0.26,1 v 0.2 c 0,0 -0.01,0.06 -0.03,0.08 -0.02,0.02 -0.05,0.03 -0.08,0.03 h -1.08 c 0,0 -0.06,-0.01 -0.08,-0.03 C 28.11,44.6 28.1,44.57 28.1,44.54 v -0.19 c 0,-0.23 -0.07,-0.43 -0.22,-0.58 -0.15,-0.15 -0.35,-0.23 -0.59,-0.23 -0.24,0 -0.45,0.08 -0.6,0.24 -0.15,0.16 -0.23,0.37 -0.23,0.63 v 2.65 c 0,0.26 0.08,0.47 0.24,0.63 0.16,0.16 0.36,0.24 0.62,0.24 0.26,0 0.43,-0.07 0.58,-0.21 0.14,-0.14 0.22,-0.34 0.22,-0.58 v -0.57 c 0,0 -0.02,-0.05 -0.05,-0.05 h -0.72 c 0,0 -0.06,-0.01 -0.08,-0.03 -0.02,-0.02 -0.03,-0.05 -0.03,-0.08 v -0.84 c 0,0 0.01,-0.06 0.03,-0.08 0.02,-0.02 0.05,-0.03 0.08,-0.03 h 1.95 c 0,0 0.06,0.01 0.08,0.03 0.02,0.02 0.03,0.05 0.03,0.08 v 1.47 c 0,0.62 -0.19,1.11 -0.58,1.47 -0.39,0.36 -0.9,0.55 -1.54,0.55 -0.42,0 -0.79,-0.08 -1.11,-0.25 z"
         id="path9"
         style="fill:#ffffff" />
      <path
         class="cls-2"
         d="m 33.09,48.87 -0.94,-2.56 c 0,0 -0.03,-0.04 -0.05,-0.04 h -0.58 c 0,0 -0.05,0.02 -0.05,0.05 v 2.53 c 0,0 -0.01,0.06 -0.03,0.08 -0.02,0.02 -0.05,0.03 -0.08,0.03 h -1.08 c 0,0 -0.06,-0.01 -0.08,-0.03 -0.02,-0.02 -0.03,-0.05 -0.03,-0.08 v -6.26 c 0,0 0.01,-0.06 0.03,-0.08 0.02,-0.02 0.05,-0.03 0.08,-0.03 h 2.26 c 0.36,0 0.69,0.08 0.97,0.25 0.28,0.16 0.5,0.39 0.66,0.69 0.15,0.3 0.23,0.64 0.23,1.02 0,0.38 -0.09,0.74 -0.26,1.03 -0.17,0.29 -0.42,0.51 -0.73,0.65 -0.03,0.01 -0.04,0.03 -0.03,0.06 l 1.06,2.66 c 0,0 0,0.03 0,0.05 0,0.06 -0.03,0.08 -0.1,0.08 h -1.13 c -0.07,0 -0.11,-0.03 -0.13,-0.09 z m -1.61,-5.22 v 1.58 c 0,0 0.02,0.05 0.05,0.05 h 0.81 c 0.23,0 0.41,-0.08 0.56,-0.23 0.14,-0.15 0.21,-0.35 0.21,-0.61 0,-0.26 -0.07,-0.46 -0.21,-0.62 -0.14,-0.15 -0.33,-0.23 -0.56,-0.23 h -0.81 c 0,0 -0.05,0.02 -0.05,0.05 z"
         id="path10"
         style="fill:#ffffff" />
      <path
         class="cls-2"
         d="m 38.5,48.87 -0.21,-0.91 c 0,0 -0.02,-0.04 -0.05,-0.04 h -1.73 c 0,0 -0.04,0.01 -0.05,0.04 l -0.21,0.91 c -0.02,0.06 -0.06,0.09 -0.12,0.09 h -1.12 c -0.08,0 -0.11,-0.04 -0.09,-0.12 l 1.67,-6.27 c 0.02,-0.06 0.06,-0.09 0.13,-0.09 h 1.34 c 0.07,0 0.11,0.03 0.13,0.09 l 1.67,6.27 v 0.04 c 0,0.06 -0.02,0.08 -0.09,0.08 h -1.13 c -0.07,0 -0.11,-0.03 -0.13,-0.09 z M 36.72,46.9 c 0,0 0.02,0.01 0.04,0.01 h 1.22 c 0,0 0.02,0 0.04,-0.01 0.01,0 0.02,-0.02 0,-0.04 l -0.64,-2.69 c 0,0 -0.02,-0.04 -0.03,-0.04 -0.01,0 -0.02,0.01 -0.03,0.04 l -0.62,2.69 c 0,0 0,0.03 0,0.04 z"
         id="path11"
         style="fill:#ffffff" />
      <path
         class="cls-2"
         d="m 43.67,42.51 c 0,0 0.05,-0.03 0.08,-0.03 h 1.07 c 0,0 0.06,0.01 0.08,0.03 0.02,0.02 0.03,0.05 0.03,0.08 v 6.26 c 0,0 -0.01,0.06 -0.03,0.08 -0.02,0.02 -0.05,0.03 -0.08,0.03 h -1.13 c -0.06,0 -0.11,-0.03 -0.13,-0.08 l -1.77,-3.77 c 0,0 -0.02,-0.03 -0.04,-0.03 -0.02,0 -0.02,0.01 -0.02,0.04 v 3.73 c 0,0 0,0.06 -0.02,0.08 -0.02,0.02 -0.05,0.03 -0.08,0.03 h -1.07 c 0,0 -0.06,-0.01 -0.08,-0.03 -0.02,-0.02 -0.03,-0.05 -0.03,-0.08 v -6.26 c 0,0 0.01,-0.06 0.03,-0.08 0.02,-0.02 0.05,-0.03 0.08,-0.03 h 1.12 c 0.06,0 0.1,0.03 0.13,0.08 l 1.77,3.77 c 0,0 0.02,0.03 0.04,0.03 0.02,0 0.02,-0.01 0.02,-0.04 v -3.73 c 0,0 0.01,-0.06 0.03,-0.08 z"
         id="path12"
         style="fill:#ffffff" />
      <path
         class="cls-2"
         d="m 45.83,48.93 c 0,0 -0.03,-0.05 -0.03,-0.08 v -6.26 c 0,0 0.01,-0.06 0.03,-0.08 0.02,-0.02 0.05,-0.03 0.08,-0.03 h 1.99 c 0.41,0 0.78,0.08 1.1,0.23 0.32,0.15 0.56,0.37 0.74,0.66 0.18,0.29 0.26,0.61 0.26,0.99 v 2.72 c 0,0.38 -0.09,0.71 -0.26,0.99 -0.17,0.28 -0.42,0.5 -0.74,0.66 -0.32,0.15 -0.68,0.23 -1.1,0.23 h -1.99 c 0,0 -0.06,-0.01 -0.08,-0.03 z m 1.32,-1.09 h 0.76 c 0.23,0 0.41,-0.09 0.56,-0.25 0.14,-0.16 0.22,-0.38 0.22,-0.65 v -2.43 c 0,-0.28 -0.07,-0.5 -0.21,-0.66 -0.14,-0.16 -0.33,-0.25 -0.56,-0.25 h -0.76 c 0,0 -0.05,0.02 -0.05,0.05 v 4.15 c 0,0 0.02,0.05 0.05,0.05 z"
         id="path13"
         style="fill:#ffffff" />
      <path
         class="cls-2"
         d="m 54.67,43.57 c 0,0 -0.05,0.03 -0.08,0.03 h -2.48 c 0,0 -0.05,0.02 -0.05,0.05 v 1.44 c 0,0 0.02,0.05 0.05,0.05 h 1.55 c 0,0 0.06,0.01 0.08,0.03 0.02,0.02 0.03,0.05 0.03,0.08 v 0.9 c 0,0 -0.01,0.06 -0.03,0.08 -0.02,0.02 -0.05,0.03 -0.08,0.03 h -1.55 c 0,0 -0.05,0.02 -0.05,0.05 v 1.49 c 0,0 0.02,0.05 0.05,0.05 h 2.48 c 0,0 0.06,0.01 0.08,0.03 0.02,0.02 0.03,0.05 0.03,0.08 v 0.9 c 0,0 -0.01,0.06 -0.03,0.08 -0.02,0.02 -0.05,0.03 -0.08,0.03 h -3.72 c 0,0 -0.06,-0.01 -0.08,-0.03 -0.02,-0.02 -0.03,-0.05 -0.03,-0.08 V 42.6 c 0,0 0.01,-0.06 0.03,-0.08 0.02,-0.02 0.05,-0.03 0.08,-0.03 h 3.72 c 0,0 0.06,0.01 0.08,0.03 0.02,0.02 0.03,0.05 0.03,0.08 v 0.9 c 0,0 -0.01,0.06 -0.03,0.08 z"
         id="path14"
         style="fill:#ffffff" />
      <path
         class="cls-2"
         d="m 57.19,48.93 c 0,0 -0.03,-0.05 -0.03,-0.08 v -6.26 c 0,0 0.01,-0.06 0.03,-0.08 0.02,-0.02 0.05,-0.03 0.08,-0.03 h 1.99 c 0.41,0 0.78,0.08 1.1,0.23 0.32,0.15 0.56,0.37 0.74,0.66 0.18,0.29 0.26,0.61 0.26,0.99 v 2.72 c 0,0.38 -0.09,0.71 -0.26,0.99 -0.17,0.28 -0.42,0.5 -0.74,0.66 -0.32,0.15 -0.68,0.23 -1.1,0.23 h -1.99 c 0,0 -0.06,-0.01 -0.08,-0.03 z m 1.32,-1.09 h 0.76 c 0.23,0 0.41,-0.09 0.56,-0.25 0.15,-0.16 0.22,-0.38 0.22,-0.65 v -2.43 c 0,-0.28 -0.07,-0.5 -0.21,-0.66 C 59.7,43.69 59.51,43.6 59.28,43.6 h -0.76 c 0,0 -0.05,0.02 -0.05,0.05 v 4.15 c 0,0 0.02,0.05 0.05,0.05 z"
         id="path15"
         style="fill:#ffffff" />
      <path
         class="cls-2"
         d="m 63.05,48.78 c -0.32,-0.17 -0.58,-0.42 -0.75,-0.73 -0.18,-0.31 -0.27,-0.68 -0.27,-1.1 v -2.46 c 0,-0.41 0.09,-0.78 0.27,-1.09 0.18,-0.31 0.43,-0.56 0.75,-0.73 0.32,-0.17 0.7,-0.26 1.13,-0.26 0.43,0 0.8,0.09 1.13,0.26 0.33,0.17 0.58,0.42 0.76,0.73 0.18,0.32 0.27,0.68 0.27,1.09 v 2.46 c 0,0.42 -0.09,0.79 -0.27,1.1 -0.18,0.31 -0.43,0.56 -0.76,0.73 -0.33,0.17 -0.7,0.26 -1.13,0.26 -0.43,0 -0.8,-0.09 -1.13,-0.26 z m 1.74,-1.11 c 0.15,-0.17 0.23,-0.39 0.23,-0.66 v -2.56 c 0,-0.28 -0.08,-0.5 -0.23,-0.67 -0.15,-0.17 -0.36,-0.25 -0.62,-0.25 -0.26,0 -0.46,0.09 -0.61,0.25 -0.15,0.17 -0.23,0.39 -0.23,0.67 v 2.56 c 0,0.27 0.08,0.49 0.23,0.66 0.15,0.17 0.36,0.25 0.61,0.25 0.25,0 0.47,-0.08 0.62,-0.25 z"
         id="path16"
         style="fill:#ffffff" />
      <path
         class="cls-2"
         d="M 69.69,48.81 C 69.37,48.66 69.12,48.45 68.94,48.17 68.76,47.9 68.68,47.58 68.68,47.22 v -0.24 c 0,0 0.01,-0.06 0.03,-0.08 0.02,-0.02 0.05,-0.03 0.08,-0.03 h 1.06 c 0,0 0.06,0.01 0.08,0.03 0.02,0.02 0.03,0.05 0.03,0.08 v 0.18 c 0,0.22 0.08,0.4 0.24,0.54 0.16,0.14 0.38,0.22 0.65,0.22 0.24,0 0.42,-0.06 0.55,-0.19 0.13,-0.12 0.19,-0.28 0.19,-0.47 0,-0.14 -0.04,-0.26 -0.12,-0.37 -0.08,-0.1 -0.19,-0.2 -0.34,-0.29 -0.15,-0.09 -0.37,-0.21 -0.67,-0.37 -0.37,-0.18 -0.67,-0.36 -0.91,-0.52 -0.24,-0.16 -0.44,-0.37 -0.6,-0.62 -0.17,-0.25 -0.25,-0.56 -0.25,-0.92 0,-0.36 0.08,-0.67 0.25,-0.94 0.17,-0.27 0.41,-0.48 0.72,-0.62 0.31,-0.14 0.66,-0.22 1.06,-0.22 0.4,0 0.78,0.08 1.1,0.24 0.32,0.16 0.57,0.38 0.75,0.66 0.18,0.28 0.27,0.61 0.27,0.98 v 0.18 c 0,0 -0.01,0.06 -0.03,0.08 -0.02,0.02 -0.05,0.03 -0.08,0.03 h -1.07 c 0,0 -0.06,-0.01 -0.08,-0.03 -0.02,-0.02 -0.03,-0.05 -0.03,-0.08 v -0.17 c 0,-0.22 -0.08,-0.41 -0.23,-0.56 -0.15,-0.15 -0.36,-0.22 -0.63,-0.22 -0.22,0 -0.4,0.06 -0.52,0.17 -0.12,0.11 -0.19,0.27 -0.19,0.48 0,0.14 0.04,0.27 0.11,0.37 0.07,0.11 0.19,0.21 0.34,0.3 0.15,0.1 0.39,0.22 0.7,0.38 l 0.19,0.11 c 0.36,0.2 0.64,0.37 0.84,0.51 0.2,0.15 0.37,0.33 0.5,0.55 0.13,0.22 0.2,0.49 0.2,0.81 0,0.56 -0.19,1.01 -0.57,1.34 -0.38,0.33 -0.88,0.5 -1.51,0.5 -0.43,0 -0.8,-0.08 -1.12,-0.23 z"
         id="path17"
         style="fill:#ffffff" />
      <path
         class="cls-2"
         d="M 74.55,48.78 C 74.23,48.61 73.98,48.36 73.8,48.05 73.62,47.74 73.54,47.38 73.54,46.97 v -4.38 c 0,0 0.01,-0.06 0.03,-0.08 0.02,-0.02 0.05,-0.03 0.08,-0.03 h 1.08 c 0,0 0.06,0.01 0.08,0.03 0.02,0.02 0.03,0.05 0.03,0.08 v 4.45 c 0,0.27 0.07,0.48 0.22,0.64 0.15,0.16 0.35,0.24 0.59,0.24 0.24,0 0.44,-0.08 0.59,-0.24 0.15,-0.16 0.22,-0.37 0.22,-0.64 v -4.45 c 0,0 0.01,-0.06 0.03,-0.08 0.02,-0.02 0.05,-0.03 0.08,-0.03 h 1.08 c 0,0 0.06,0.01 0.08,0.03 0.02,0.02 0.03,0.05 0.03,0.08 v 4.38 c 0,0.41 -0.09,0.77 -0.26,1.08 -0.18,0.31 -0.42,0.55 -0.75,0.73 -0.32,0.17 -0.69,0.26 -1.11,0.26 -0.42,0 -0.79,-0.09 -1.11,-0.26 z"
         id="path18"
         style="fill:#ffffff" />
      <path
         class="cls-2"
         d="m 78.66,48.93 c 0,0 -0.03,-0.05 -0.03,-0.08 v -6.26 c 0,0 0.01,-0.06 0.03,-0.08 0.02,-0.02 0.05,-0.03 0.08,-0.03 h 1.08 c 0,0 0.06,0.01 0.08,0.03 0.02,0.02 0.03,0.05 0.03,0.08 v 5.2 c 0,0 0.02,0.05 0.05,0.05 h 2.48 c 0,0 0.06,0.01 0.08,0.03 0.02,0.02 0.03,0.05 0.03,0.08 v 0.9 c 0,0 -0.01,0.06 -0.03,0.08 -0.02,0.02 -0.05,0.03 -0.08,0.03 h -3.72 c 0,0 -0.06,-0.01 -0.08,-0.03 z"
         id="path19"
         style="fill:#ffffff" />
    </g>
    <g
       id="g23"
       style="fill:#ffffff">
      <polygon
         class="cls-3"
         points="65.55,37.99 49.49,0.06 33.43,37.99 "
         id="polygon19"
         style="fill:#ffffff" />
      <path
         class="cls-3"
         d="m 66.62,0.06 h 13.53 c 0,0 7.12,3.09 7.12,9.9 0,3.71 -2.39,6.27 -2.39,6.27 0,0 8.71,2.95 8.71,10.81 0,7.86 -9.06,10.94 -9.06,10.94 H 66.62 Z"
         id="path20"
         style="fill:#ffffff" />
      <g
         id="g22"
         style="fill:#ffffff">
        <path
           class="cls-2"
           d="M 37.2,24.14 C 26.78,15.61 14.21,11.78 0.77,13.6 0.27,15.3 0,17.1 0,18.96 c 0,10.47 8.49,18.96 18.96,18.96 8.68,0 15.99,-5.83 18.24,-13.78 z m -8.99,5.34 0.22,-0.44 0.21,0.44 0.49,0.07 -0.35,0.34 0.08,0.49 -0.43,-0.23 -0.44,0.23 0.09,-0.48 -0.35,-0.34 0.49,-0.07 z m -5.02,-12 0.23,-0.46 0.23,0.46 0.51,0.07 -0.37,0.36 0.09,0.51 -0.46,-0.24 -0.46,0.24 0.09,-0.51 -0.37,-0.36 z m -4.32,4.44 0.26,-0.54 0.27,0.54 0.59,0.08 -0.42,0.42 0.11,0.59 -0.53,-0.27 -0.53,0.29 0.09,-0.59 -0.43,-0.41 0.59,-0.09 z M 3.23,15.41 3.56,14.75 3.88,15.41 4.6,15.52 4.07,16.03 4.19,16.75 3.54,16.41 2.89,16.75 3.02,16.03 2.5,15.52 3.22,15.42 Z M 3.72,26.08 3.19,25.81 2.66,26.09 2.75,25.5 2.32,25.09 2.91,25 3.17,24.46 3.44,24.99 4.03,25.07 3.61,25.49 Z M 5.74,24.57 5.12,24.25 4.51,24.58 4.62,23.9 4.12,23.42 4.8,23.31 5.1,22.69 5.41,23.31 6.09,23.4 5.6,23.89 5.72,24.57 Z M 7.2,22.94 6.87,22.76 6.54,22.93 6.61,22.57 6.35,22.31 l 0.37,-0.05 0.17,-0.33 0.16,0.33 0.37,0.06 -0.27,0.26 0.06,0.37 z m 1.51,5.15 -0.44,-0.23 -0.44,0.23 0.08,-0.49 -0.36,-0.35 0.5,-0.07 0.22,-0.45 0.22,0.45 0.5,0.07 -0.36,0.35 0.09,0.49 z m 0.75,-1.9 -0.51,-0.26 -0.51,0.27 0.09,-0.57 -0.42,-0.4 0.57,-0.09 0.25,-0.52 0.26,0.51 0.57,0.07 -0.41,0.41 0.11,0.57 z m 2.18,4.08 -0.6,-0.31 -0.59,0.32 0.11,-0.66 -0.48,-0.46 0.66,-0.1 0.29,-0.61 0.3,0.6 0.66,0.09 -0.48,0.47 0.12,0.66 z m 0.52,-9.8 -0.54,-0.27 -0.53,0.3 0.08,-0.6 -0.44,-0.41 0.6,-0.1 0.25,-0.55 0.28,0.53 0.6,0.07 -0.42,0.44 z m 4.8,4.26 -0.45,-0.24 -0.45,0.24 0.09,-0.51 -0.37,-0.36 0.51,-0.07 0.23,-0.46 0.23,0.46 0.51,0.07 -0.37,0.36 0.09,0.51 z m 0.61,0.85 0.07,-0.36 -0.26,-0.26 0.36,-0.05 0.17,-0.32 0.15,0.33 0.36,0.06 -0.26,0.25 0.06,0.36 -0.32,-0.17 -0.32,0.16 z m 1.82,8.78 -0.28,-0.14 -0.28,0.16 0.04,-0.31 -0.23,-0.21 0.31,-0.05 0.13,-0.29 0.15,0.28 0.31,0.04 -0.22,0.23 0.06,0.31 z m 0.26,-5.71 -0.62,-0.32 -0.61,0.33 0.11,-0.69 -0.5,-0.48 0.69,-0.11 0.3,-0.63 0.31,0.62 0.69,0.09 -0.49,0.49 0.12,0.68 z m 1.75,-4.01 -0.54,-0.28 -0.53,0.29 0.1,-0.6 -0.44,-0.42 0.6,-0.09 0.26,-0.55 0.27,0.54 0.6,0.08 -0.43,0.43 z m 1.96,5.68 -0.43,-0.23 -0.44,0.23 0.08,-0.48 -0.35,-0.34 0.49,-0.07 0.22,-0.44 0.22,0.44 0.49,0.07 -0.35,0.34 0.08,0.49 z m 1.64,2.4 -0.5,-0.25 -0.49,0.27 0.08,-0.56 -0.41,-0.39 0.56,-0.09 0.24,-0.51 0.26,0.5 0.56,0.07 -0.4,0.4 0.11,0.55 z m 1.65,-1.92 -0.44,-0.23 -0.44,0.23 0.08,-0.49 -0.36,-0.34 0.49,-0.08 0.21,-0.45 0.22,0.44 0.49,0.07 -0.35,0.35 0.09,0.49 z m 2.27,3.41 -0.44,-0.22 -0.43,0.24 0.07,-0.49 -0.36,-0.34 0.49,-0.08 0.21,-0.45 0.23,0.44 0.49,0.06 -0.35,0.35 z m 0,-2.46 0.09,0.59 -0.52,-0.28 -0.53,0.27 0.11,-0.59 -0.42,-0.42 0.59,-0.08 0.27,-0.53 0.26,0.54 0.59,0.09 -0.43,0.41 z m 1.81,-1.42 -0.42,-0.21 -0.41,0.23 0.07,-0.46 -0.34,-0.32 0.46,-0.08 0.2,-0.42 0.21,0.41 0.46,0.06 -0.33,0.33 0.09,0.46 z m 1.17,-5.16 0.3,-0.63 0.31,0.62 0.69,0.09 -0.49,0.49 0.13,0.68 -0.62,-0.31 -0.61,0.33 0.11,-0.68 -0.5,-0.48 z m 0.64,4.51 -0.5,-0.27 -0.51,0.26 0.1,-0.56 -0.4,-0.4 0.56,-0.07 0.26,-0.51 0.25,0.51 0.56,0.09 -0.41,0.39 z m 0.9,-1.53 -0.48,-0.27 -0.49,0.25 0.1,-0.54 -0.39,-0.39 0.55,-0.07 0.25,-0.49 0.23,0.5 0.54,0.09 -0.4,0.38 0.08,0.55 z m 1.56,-2.01 -0.42,0.24 0.07,-0.48 -0.35,-0.33 0.48,-0.08 0.2,-0.44 0.22,0.43 0.48,0.06 -0.34,0.34 0.09,0.47 z"
           id="path21"
           style="fill:#ffffff" />
        <path
           class="cls-2"
           d="m 37.53,21.01 0.26,0.18 c 0.09,-0.73 0.14,-1.48 0.14,-2.23 C 37.92,8.49 29.43,0 18.96,0 11.4,0 4.87,4.43 1.83,10.84 14.6,9.62 25.67,11.98 37.53,21.01 Z m -13.07,-9.09 0.32,-0.66 0.33,0.65 0.72,0.1 -0.52,0.52 0.13,0.72 -0.65,-0.33 -0.64,0.35 0.12,-0.72 -0.53,-0.51 0.72,-0.11 z"
           id="path22"
           style="fill:#ffffff" />
      </g>
      <path
         class="cls-2"
         d="m 13.61,11.97 c 0.05,-0.03 0.12,-0.04 0.2,-0.02 0.08,0.01 0.14,0.03 0.17,0.07 0.03,0.04 0.05,0.09 0.06,0.16 l 0.28,0.03 c 0.01,-0.13 -0.02,-0.24 -0.1,-0.32 -0.08,-0.09 -0.2,-0.14 -0.38,-0.17 -0.11,-0.01 -0.2,-0.01 -0.28,0.01 -0.08,0.02 -0.14,0.06 -0.19,0.12 -0.05,0.06 -0.08,0.12 -0.09,0.19 -0.01,0.11 0.01,0.21 0.09,0.3 0.05,0.06 0.15,0.12 0.3,0.18 0.11,0.04 0.18,0.07 0.22,0.09 0.05,0.02 0.08,0.05 0.09,0.07 0.02,0.03 0.02,0.05 0.02,0.09 0,0.05 -0.04,0.09 -0.09,0.12 -0.05,0.03 -0.12,0.04 -0.21,0.03 -0.08,-0.01 -0.15,-0.04 -0.19,-0.09 -0.04,-0.05 -0.07,-0.12 -0.07,-0.21 h -0.28 c 0,0.15 0.04,0.27 0.12,0.37 0.08,0.09 0.21,0.15 0.39,0.18 0.12,0.02 0.22,0.01 0.31,0 0.08,-0.02 0.15,-0.07 0.21,-0.13 0.05,-0.06 0.09,-0.13 0.1,-0.21 0.01,-0.09 0,-0.16 -0.03,-0.23 -0.03,-0.06 -0.07,-0.12 -0.13,-0.16 -0.06,-0.04 -0.16,-0.09 -0.29,-0.14 -0.13,-0.05 -0.21,-0.09 -0.24,-0.13 -0.02,-0.03 -0.03,-0.06 -0.03,-0.09 0,-0.04 0.02,-0.06 0.06,-0.08 z m -1.23,-0.44 c -0.11,0 -0.21,0 -0.3,0.03 -0.07,0.02 -0.13,0.06 -0.19,0.11 -0.06,0.05 -0.11,0.11 -0.15,0.18 -0.05,0.09 -0.08,0.21 -0.09,0.35 -0.02,0.22 0.03,0.4 0.14,0.54 0.11,0.14 0.27,0.21 0.48,0.23 0.2,0.02 0.37,-0.03 0.5,-0.15 0.13,-0.12 0.21,-0.29 0.23,-0.51 0.02,-0.23 -0.03,-0.41 -0.14,-0.55 -0.11,-0.14 -0.27,-0.21 -0.48,-0.23 z m 0.19,1.1 c -0.08,0.08 -0.17,0.11 -0.29,0.1 -0.11,0 -0.2,-0.06 -0.27,-0.14 -0.07,-0.09 -0.09,-0.21 -0.08,-0.37 0.01,-0.16 0.06,-0.28 0.14,-0.35 0.08,-0.07 0.17,-0.11 0.29,-0.1 0.12,0 0.21,0.06 0.27,0.14 0.06,0.08 0.09,0.21 0.07,0.37 -0.01,0.16 -0.06,0.28 -0.14,0.35 z M 8.79,12.23 8.58,11.27 8.16,11.25 8.09,12.64 h 0.26 c 0,0 0.05,-1.08 0.05,-1.08 l 0.22,1.11 h 0.27 c 0,0 0.33,-1.07 0.33,-1.07 l -0.05,1.1 h 0.26 c 0,0 0.07,-1.38 0.07,-1.38 L 9.08,11.3 8.78,12.24 Z M 3.03,11.27 c -0.11,0 -0.21,0.03 -0.3,0.07 -0.06,0.03 -0.12,0.07 -0.18,0.13 -0.05,0.06 -0.09,0.12 -0.12,0.2 -0.04,0.1 -0.06,0.22 -0.05,0.36 0,0.22 0.08,0.39 0.2,0.52 0.13,0.12 0.29,0.18 0.5,0.17 0.2,0 0.37,-0.08 0.48,-0.21 0.12,-0.13 0.17,-0.31 0.16,-0.54 0,-0.23 -0.08,-0.4 -0.21,-0.52 -0.13,-0.12 -0.3,-0.18 -0.5,-0.17 z m 0.32,1.07 c -0.07,0.08 -0.16,0.13 -0.27,0.13 -0.11,0 -0.21,-0.03 -0.28,-0.11 -0.08,-0.08 -0.12,-0.2 -0.12,-0.35 0,-0.16 0.02,-0.28 0.09,-0.36 0.07,-0.08 0.16,-0.13 0.28,-0.13 0.12,0 0.21,0.03 0.28,0.11 0.07,0.08 0.11,0.19 0.12,0.35 0,0.16 -0.02,0.28 -0.09,0.37 z M 4.9,12.12 c 0,0 -0.09,-0.08 -0.15,-0.11 C 4.87,11.99 4.96,11.94 5.02,11.88 5.08,11.81 5.11,11.72 5.11,11.62 5.11,11.54 5.09,11.47 5.04,11.4 5,11.34 4.94,11.29 4.88,11.27 4.81,11.25 4.7,11.24 4.55,11.24 H 3.96 c 0,0 0.03,1.41 0.03,1.41 h 0.28 c 0,0 -0.01,-0.59 -0.01,-0.59 h 0.06 c 0.06,0 0.11,0 0.14,0.01 0.03,0.01 0.06,0.03 0.09,0.06 0.03,0.03 0.08,0.09 0.15,0.2 l 0.21,0.3 h 0.34 c 0,0 -0.18,-0.28 -0.18,-0.28 C 5,12.24 4.95,12.17 4.91,12.13 Z M 4.46,11.82 H 4.25 c 0,0 0,-0.35 0,-0.35 h 0.22 c 0.11,0 0.18,0 0.21,0 0.05,0 0.08,0.02 0.11,0.05 0.03,0.03 0.04,0.07 0.04,0.11 0,0.04 0,0.08 -0.03,0.11 C 4.78,11.77 4.76,11.79 4.72,11.8 4.69,11.81 4.6,11.82 4.47,11.82 Z M 6.4,11.37 C 6.34,11.31 6.27,11.26 6.19,11.24 6.13,11.22 6.04,11.21 5.93,11.21 H 5.42 c 0,0 -0.02,1.39 -0.02,1.39 h 0.53 c 0.1,0 0.19,0 0.25,-0.02 0.08,-0.03 0.15,-0.06 0.2,-0.11 C 6.45,12.41 6.5,12.33 6.53,12.23 6.56,12.15 6.58,12.05 6.58,11.93 6.58,11.8 6.57,11.69 6.54,11.6 6.51,11.51 6.47,11.43 6.41,11.37 Z m -0.15,0.8 c -0.02,0.06 -0.04,0.11 -0.08,0.13 -0.03,0.03 -0.07,0.05 -0.11,0.06 -0.04,0 -0.09,0.01 -0.17,0.01 H 5.68 c 0,0 0.01,-0.93 0.01,-0.93 h 0.13 c 0.11,0 0.19,0 0.23,0.02 0.05,0.01 0.1,0.03 0.13,0.07 0.03,0.03 0.06,0.08 0.08,0.14 0.02,0.06 0.03,0.14 0.03,0.25 0,0.11 -0.01,0.19 -0.03,0.26 z m 0.84,-0.16 h 0.7 c 0,0 0,-0.23 0,-0.23 h -0.7 c 0,0 0,-0.32 0,-0.32 h 0.75 c 0,0 0,-0.23 0,-0.23 H 6.81 c 0,0 -0.02,1.38 -0.02,1.38 h 1.06 c 0,0 0,-0.22 0,-0.22 H 7.07 c 0,0 0,-0.39 0,-0.39 z m 4.24,-0.41 c -0.05,-0.07 -0.12,-0.11 -0.2,-0.14 -0.06,-0.02 -0.15,-0.04 -0.26,-0.04 l -0.51,-0.03 -0.09,1.39 0.53,0.03 c 0.1,0 0.19,0 0.25,-0.01 0.08,-0.02 0.15,-0.05 0.2,-0.1 0.07,-0.06 0.12,-0.14 0.17,-0.24 0.03,-0.08 0.05,-0.18 0.06,-0.29 0,-0.13 0,-0.24 -0.02,-0.33 -0.02,-0.09 -0.06,-0.17 -0.12,-0.23 z m -0.14,0.53 c 0,0.11 -0.02,0.19 -0.05,0.25 -0.02,0.06 -0.05,0.1 -0.08,0.13 -0.03,0.03 -0.07,0.04 -0.12,0.05 -0.04,0 -0.09,0 -0.17,0 h -0.21 c 0,0 0.06,-0.94 0.06,-0.94 h 0.13 c 0.11,0.02 0.19,0.03 0.23,0.04 0.05,0.01 0.09,0.04 0.13,0.07 0.03,0.03 0.06,0.08 0.07,0.14 0.01,0.06 0.02,0.14 0.01,0.25 z m 4.33,-0.13 -0.75,1.3 0.3,0.05 0.16,-0.3 0.55,0.09 0.07,0.33 0.3,0.05 -0.34,-1.46 -0.29,-0.05 z m -0.17,0.82 0.26,-0.48 0.11,0.54 -0.38,-0.06 z m 16.57,6.06 c 0,-0.07 -0.04,-0.14 -0.1,-0.21 0.07,0 0.13,0 0.19,-0.03 0.06,-0.03 0.1,-0.07 0.14,-0.13 0.03,-0.05 0.05,-0.11 0.05,-0.16 0,-0.06 -0.01,-0.11 -0.03,-0.15 -0.02,-0.05 -0.05,-0.09 -0.1,-0.12 C 32.03,18.04 31.96,18 31.86,17.94 l -0.48,-0.29 -0.71,1.2 0.41,0.24 c 0.15,0.09 0.25,0.15 0.3,0.17 0.07,0.03 0.13,0.04 0.2,0.04 0.06,0 0.12,-0.03 0.18,-0.06 0.06,-0.04 0.1,-0.08 0.13,-0.14 0.04,-0.07 0.06,-0.14 0.05,-0.22 z m -0.29,0.05 c 0,0 -0.06,0.07 -0.09,0.08 -0.04,0.01 -0.08,0.01 -0.12,0 -0.03,0 -0.08,-0.04 -0.17,-0.09 l -0.22,-0.13 0.19,-0.32 0.2,0.12 c 0.11,0.07 0.18,0.11 0.2,0.14 0.03,0.03 0.04,0.06 0.04,0.1 0,0.04 0,0.07 -0.03,0.11 z m 0.17,-0.45 c 0,0 -0.08,0 -0.12,-0.02 -0.02,-0.01 -0.08,-0.04 -0.18,-0.1 l -0.16,-0.09 0.17,-0.28 0.14,0.08 c 0.11,0.07 0.18,0.11 0.2,0.13 0.04,0.03 0.06,0.06 0.07,0.1 0,0.04 0,0.07 -0.02,0.11 -0.02,0.04 -0.05,0.06 -0.09,0.07 z m 2.35,0.91 -1.23,0.86 0.25,0.17 0.27,-0.2 0.46,0.31 -0.08,0.33 0.25,0.17 0.31,-1.47 -0.25,-0.17 z m -0.19,0.89 -0.32,-0.21 0.44,-0.33 -0.13,0.54 z M 29.03,16.53 C 29,16.45 28.96,16.38 28.9,16.32 28.85,16.28 28.78,16.23 28.67,16.18 l -0.46,-0.22 -0.61,1.26 0.48,0.23 c 0.09,0.05 0.17,0.07 0.24,0.08 0.09,0.01 0.16,0 0.23,-0.01 0.09,-0.03 0.17,-0.08 0.24,-0.16 0.06,-0.06 0.12,-0.15 0.17,-0.25 0.06,-0.12 0.09,-0.22 0.1,-0.32 0.01,-0.09 0,-0.18 -0.02,-0.26 z m -0.26,0.2 c 0,0.06 -0.04,0.14 -0.08,0.24 -0.05,0.1 -0.09,0.17 -0.14,0.22 -0.04,0.05 -0.09,0.08 -0.13,0.09 -0.04,0.01 -0.08,0.01 -0.13,0 -0.04,0 -0.09,-0.03 -0.16,-0.06 l -0.19,-0.09 0.4,-0.83 0.11,0.06 c 0.1,0.05 0.17,0.09 0.2,0.11 0.04,0.03 0.07,0.07 0.09,0.12 0.02,0.04 0.02,0.1 0.01,0.16 z m 1.29,0.14 c -0.1,-0.05 -0.2,-0.08 -0.29,-0.09 -0.07,0 -0.14,0 -0.22,0.03 -0.08,0.02 -0.14,0.06 -0.2,0.11 -0.08,0.07 -0.16,0.16 -0.22,0.29 -0.1,0.2 -0.13,0.38 -0.08,0.55 0.05,0.17 0.17,0.3 0.35,0.4 0.18,0.1 0.36,0.12 0.52,0.06 0.17,-0.06 0.3,-0.18 0.41,-0.38 0.11,-0.2 0.13,-0.39 0.08,-0.56 -0.05,-0.17 -0.17,-0.3 -0.35,-0.4 z m 0.01,0.81 c -0.08,0.14 -0.16,0.23 -0.27,0.27 -0.1,0.04 -0.2,0.03 -0.3,-0.02 -0.1,-0.05 -0.16,-0.13 -0.19,-0.24 -0.03,-0.11 0,-0.23 0.07,-0.37 0.07,-0.14 0.16,-0.23 0.26,-0.27 0.1,-0.04 0.2,-0.03 0.3,0.03 0.1,0.05 0.17,0.13 0.19,0.23 0.02,0.1 0,0.22 -0.07,0.37 z m 2.86,2.22 c 0,-0.13 0,-0.22 -0.02,-0.28 -0.01,-0.06 -0.03,-0.12 -0.07,-0.18 0.11,0.05 0.21,0.06 0.3,0.04 0.09,-0.03 0.16,-0.08 0.22,-0.17 0.04,-0.07 0.06,-0.14 0.06,-0.22 0,-0.08 -0.02,-0.14 -0.07,-0.2 -0.04,-0.06 -0.13,-0.12 -0.26,-0.2 l -0.5,-0.31 -0.73,1.19 0.24,0.15 0.31,-0.49 0.05,0.03 c 0.06,0.03 0.09,0.06 0.11,0.09 0.02,0.02 0.03,0.06 0.04,0.09 0,0.04 0.01,0.12 0.02,0.25 v 0.37 c 0,0 0.3,0.18 0.3,0.18 v -0.32 z m -0.4,-0.87 0.19,-0.3 0.19,0.12 c 0.1,0.06 0.15,0.1 0.17,0.11 0.03,0.03 0.06,0.06 0.06,0.1 0,0.04 0,0.08 -0.03,0.12 -0.02,0.04 -0.05,0.06 -0.08,0.07 -0.03,0.01 -0.06,0.02 -0.1,0 -0.03,0 -0.11,-0.05 -0.22,-0.12 l -0.18,-0.11 z m 2.86,2.17 c 0,-0.07 0,-0.14 -0.04,-0.21 -0.03,-0.07 -0.1,-0.15 -0.19,-0.26 -0.09,-0.11 -0.14,-0.18 -0.16,-0.23 0,-0.04 0,-0.07 0.02,-0.09 0.02,-0.03 0.05,-0.04 0.09,-0.04 0.06,0 0.12,0.02 0.19,0.07 0.06,0.05 0.1,0.09 0.12,0.14 0.01,0.05 0,0.11 -0.03,0.17 l 0.24,0.15 c 0.07,-0.11 0.09,-0.22 0.07,-0.33 -0.03,-0.11 -0.11,-0.22 -0.25,-0.32 -0.09,-0.06 -0.17,-0.1 -0.25,-0.12 -0.08,-0.02 -0.15,-0.01 -0.22,0.01 -0.07,0.03 -0.12,0.07 -0.17,0.13 -0.06,0.09 -0.08,0.19 -0.06,0.3 0.02,0.08 0.08,0.18 0.18,0.3 0.08,0.09 0.13,0.15 0.15,0.18 0.03,0.04 0.05,0.08 0.05,0.11 0,0.03 0,0.06 -0.03,0.09 -0.03,0.04 -0.08,0.06 -0.13,0.07 -0.06,0 -0.13,-0.02 -0.2,-0.07 -0.07,-0.05 -0.11,-0.11 -0.13,-0.17 -0.02,-0.06 0,-0.14 0.04,-0.22 l -0.24,-0.14 c -0.08,0.14 -0.1,0.27 -0.07,0.39 0.03,0.12 0.11,0.23 0.26,0.34 0.1,0.07 0.19,0.12 0.28,0.14 0.09,0.02 0.17,0.01 0.24,-0.02 0.08,-0.03 0.14,-0.08 0.19,-0.14 0.05,-0.07 0.08,-0.14 0.08,-0.21 z m 1.35,0.1 -0.23,-0.17 -0.83,1.11 0.79,0.59 0.14,-0.19 -0.56,-0.42 z m -0.65,-0.52 -0.84,1.12 0.23,0.17 0.83,-1.12 -0.23,-0.17 z m -11.7,-6.4 C 24.34,14.34 24.26,14.3 24.15,14.27 l -0.48,-0.17 -0.47,1.31 0.5,0.18 c 0.1,0.04 0.18,0.05 0.24,0.06 0.09,0 0.16,0 0.22,-0.04 0.08,-0.04 0.16,-0.1 0.22,-0.18 0.05,-0.07 0.1,-0.16 0.14,-0.26 0.04,-0.12 0.07,-0.23 0.07,-0.33 0,-0.09 -0.01,-0.18 -0.05,-0.26 -0.03,-0.08 -0.09,-0.14 -0.15,-0.19 z m -0.14,0.67 c -0.04,0.1 -0.07,0.18 -0.11,0.23 -0.04,0.05 -0.08,0.09 -0.12,0.1 -0.04,0.02 -0.08,0.02 -0.13,0.02 -0.04,0 -0.09,-0.02 -0.17,-0.05 l -0.2,-0.07 0.31,-0.87 0.12,0.04 c 0.11,0.04 0.18,0.07 0.21,0.09 0.05,0.03 0.08,0.06 0.1,0.11 0.02,0.04 0.03,0.09 0.03,0.15 0,0.06 -0.02,0.14 -0.06,0.24 z m 2.69,0.31 c -0.1,-0.04 -0.19,-0.06 -0.27,-0.07 -0.08,0 -0.15,0.02 -0.22,0.06 -0.06,0.04 -0.11,0.09 -0.14,0.16 -0.04,0.1 -0.04,0.2 0,0.31 0.03,0.07 0.11,0.16 0.23,0.25 0.1,0.07 0.16,0.12 0.18,0.15 0.04,0.04 0.06,0.07 0.07,0.1 0,0.03 0,0.06 0,0.09 -0.02,0.05 -0.06,0.08 -0.12,0.1 -0.06,0.02 -0.13,0 -0.21,-0.03 -0.08,-0.03 -0.13,-0.08 -0.16,-0.14 -0.03,-0.06 -0.03,-0.14 0,-0.23 l -0.26,-0.09 c -0.05,0.15 -0.04,0.28 0.01,0.39 0.05,0.11 0.16,0.2 0.32,0.28 0.11,0.05 0.21,0.07 0.3,0.08 0.09,0 0.17,-0.02 0.23,-0.07 0.07,-0.05 0.12,-0.11 0.15,-0.18 0.04,-0.08 0.05,-0.16 0.04,-0.23 -0.01,-0.07 -0.04,-0.13 -0.08,-0.19 -0.05,-0.06 -0.13,-0.13 -0.24,-0.21 -0.11,-0.08 -0.18,-0.15 -0.2,-0.19 -0.02,-0.03 -0.02,-0.06 0,-0.09 0.01,-0.03 0.04,-0.05 0.08,-0.06 0.06,-0.01 0.12,0 0.2,0.03 0.07,0.03 0.12,0.07 0.14,0.12 0.02,0.04 0.03,0.1 0,0.17 l 0.26,0.1 c 0.05,-0.12 0.05,-0.23 0,-0.34 -0.05,-0.11 -0.16,-0.19 -0.32,-0.26 z m -8.14,-2.72 -0.55,0.94 -0.13,-1.08 -0.3,-0.06 0.2,1.47 0.29,0.06 0.77,-1.26 -0.29,-0.06 z m 2.43,1.34 -0.06,0.23 0.31,0.09 -0.05,0.17 c 0,0 -0.11,0.03 -0.17,0.04 -0.06,0 -0.12,0 -0.18,-0.01 -0.11,-0.03 -0.2,-0.1 -0.24,-0.2 -0.05,-0.1 -0.05,-0.23 0,-0.39 0.04,-0.15 0.11,-0.25 0.2,-0.3 0.09,-0.06 0.2,-0.07 0.31,-0.03 0.08,0.02 0.14,0.06 0.18,0.11 0.04,0.05 0.06,0.11 0.06,0.19 l 0.28,0.03 c 0,-0.13 -0.02,-0.24 -0.1,-0.34 -0.07,-0.1 -0.19,-0.17 -0.36,-0.22 -0.13,-0.04 -0.24,-0.04 -0.34,-0.02 -0.13,0.03 -0.24,0.08 -0.33,0.18 -0.09,0.09 -0.15,0.21 -0.19,0.35 -0.04,0.13 -0.04,0.26 -0.02,0.38 0.02,0.12 0.08,0.23 0.16,0.32 0.08,0.09 0.2,0.15 0.34,0.19 0.11,0.03 0.23,0.04 0.34,0.03 0.12,-0.01 0.22,-0.04 0.29,-0.08 L 21.81,14.17 21.23,14 Z m -1.32,-1.07 c -0.11,-0.03 -0.21,-0.04 -0.3,-0.02 -0.07,0 -0.14,0.03 -0.21,0.08 -0.07,0.04 -0.13,0.09 -0.17,0.15 -0.07,0.08 -0.12,0.19 -0.15,0.33 -0.06,0.21 -0.04,0.4 0.04,0.55 0.09,0.15 0.23,0.26 0.43,0.31 0.2,0.05 0.37,0.03 0.52,-0.06 0.15,-0.09 0.26,-0.25 0.31,-0.46 0.06,-0.22 0.04,-0.41 -0.04,-0.56 -0.09,-0.15 -0.23,-0.26 -0.43,-0.31 z m 0.19,0.79 c -0.04,0.16 -0.11,0.26 -0.2,0.32 -0.09,0.06 -0.19,0.08 -0.3,0.05 -0.11,-0.03 -0.19,-0.09 -0.24,-0.19 -0.05,-0.1 -0.05,-0.22 -0.01,-0.38 0.04,-0.16 0.11,-0.26 0.19,-0.32 0.09,-0.06 0.19,-0.07 0.3,-0.04 0.11,0.03 0.19,0.09 0.24,0.19 0.05,0.09 0.05,0.22 0.01,0.37 z m 5.89,1.44 c -0.07,-0.16 -0.2,-0.28 -0.39,-0.35 -0.11,-0.04 -0.21,-0.06 -0.3,-0.05 -0.07,0 -0.14,0.02 -0.21,0.05 -0.07,0.03 -0.13,0.08 -0.19,0.13 -0.07,0.08 -0.14,0.18 -0.19,0.31 -0.08,0.21 -0.08,0.39 -0.01,0.55 0.07,0.16 0.2,0.28 0.4,0.35 0.19,0.07 0.37,0.07 0.53,0 0.16,-0.08 0.28,-0.22 0.36,-0.43 0.08,-0.21 0.09,-0.4 0.02,-0.56 z m -0.29,0.45 c -0.06,0.15 -0.13,0.25 -0.23,0.3 -0.1,0.05 -0.2,0.06 -0.3,0.02 -0.11,-0.04 -0.18,-0.11 -0.22,-0.21 -0.04,-0.1 -0.03,-0.23 0.03,-0.37 0.06,-0.15 0.13,-0.25 0.23,-0.3 0.09,-0.05 0.2,-0.05 0.31,-0.01 0.11,0.04 0.18,0.11 0.22,0.21 0.04,0.1 0.03,0.22 -0.03,0.37 z M 17.5,12.52 C 17.45,12.45 17.39,12.39 17.32,12.35 17.26,12.32 17.18,12.3 17.06,12.27 l -0.51,-0.1 -0.26,1.37 0.52,0.1 c 0.1,0.02 0.19,0.03 0.25,0.02 0.09,-0.01 0.16,-0.03 0.21,-0.07 0.08,-0.05 0.14,-0.12 0.19,-0.21 0.04,-0.08 0.08,-0.17 0.1,-0.28 0.02,-0.13 0.03,-0.24 0.02,-0.33 -0.01,-0.09 -0.04,-0.18 -0.09,-0.25 z m -0.22,0.51 c -0.02,0.11 -0.05,0.19 -0.08,0.25 -0.03,0.06 -0.06,0.1 -0.1,0.12 -0.04,0.02 -0.08,0.03 -0.12,0.04 -0.04,0 -0.09,0 -0.17,-0.02 l -0.21,-0.04 0.17,-0.91 0.12,0.02 c 0.11,0.02 0.19,0.04 0.22,0.06 0.05,0.02 0.09,0.05 0.12,0.09 0.03,0.04 0.05,0.09 0.05,0.15 0,0.06 0,0.14 -0.02,0.25 z m 5.38,0.72 -0.94,1.16 0.28,0.09 0.21,-0.27 0.53,0.17 0.02,0.34 0.29,0.09 -0.11,-1.5 -0.28,-0.09 z m -0.3,0.79 0.34,-0.44 0.03,0.55 -0.36,-0.12 z"
         id="path23"
         style="fill:#ffffff" />
    </g>
  </g>
</svg>
